<svg enable-background="new 0 0 1000 1000" viewBox="0 0 1000 1000" xmlns="http://www.w3.org/2000/svg"><path d="m10 267.7c0 56 45.4 101.4 101.4 101.4s101.4-45.4 101.4-101.4c0-56-45.4-101.4-101.4-101.4s-101.4 45.4-101.4 101.4z"/><path d="m360.6 354.3h538.6c48.6 0 90.8-40.1 90.8-90.8s-40.1-90.8-90.8-90.8h-538.6c-50.7 0-90.8 40.1-90.8 90.8 0 50.6 40.1 90.8 90.8 90.8z"/><path d="m10 500c0 56 45.4 101.4 101.4 101.4s101.4-45.4 101.4-101.4-45.4-101.4-101.4-101.4-101.4 45.4-101.4 101.4z"/><path d="m360.6 586.6h538.6c48.6 0 90.8-40.1 90.8-90.8s-40.1-90.8-90.8-90.8h-538.6c-50.7 0-90.8 40.1-90.8 90.8s40.1 90.8 90.8 90.8z"/><path d="m10 732.3c0 56 45.4 101.4 101.4 101.4s101.4-45.4 101.4-101.4-45.4-101.4-101.4-101.4-101.4 45.4-101.4 101.4z"/><path d="m360.6 818.9h538.6c48.6 0 90.8-40.1 90.8-90.8s-40.1-90.8-90.8-90.8h-538.6c-50.7 0-90.8 40.1-90.8 90.8s40.1 90.8 90.8 90.8z"/></svg>